<svg width="9" height="5" viewBox="0 0 9 5" fill="none" xmlns="http://www.w3.org/2000/svg">
<path d="M0.920063 0.506392C1.02555 0.403425 1.1686 0.345581 1.31775 0.345581C1.46691 0.345581 1.60995 0.403425 1.71544 0.506392L4.49981 3.22514L7.28419 0.506392C7.39028 0.406343 7.53237 0.350982 7.67985 0.352234C7.82734 0.353485 7.96842 0.411248 8.07271 0.513082C8.177 0.614916 8.23616 0.752673 8.23744 0.896683C8.23872 1.04069 8.18203 1.17943 8.07956 1.28302L4.8975 4.39008C4.79202 4.49305 4.64897 4.5509 4.49981 4.5509C4.35066 4.5509 4.20761 4.49305 4.10213 4.39008L0.920063 1.28302C0.814611 1.18002 0.755371 1.04035 0.755371 0.894706C0.755371 0.749067 0.814611 0.60939 0.920063 0.506392V0.506392Z" fill="#ABABAB"/>
</svg>
