<svg width="11" height="9" viewBox="0 0 11 9" fill="none" xmlns="http://www.w3.org/2000/svg">
<path fill-rule="evenodd" clip-rule="evenodd" d="M0.749916 4.50002C0.749916 4.65749 0.812471 4.80851 0.923821 4.91986C1.03517 5.03121 1.18619 5.09377 1.34367 5.09377H8.22285L5.67329 7.64214C5.61809 7.69735 5.5743 7.76288 5.54442 7.83501C5.51454 7.90714 5.49917 7.98445 5.49917 8.06252C5.49917 8.14059 5.51454 8.21789 5.54442 8.29002C5.5743 8.36215 5.61809 8.42769 5.67329 8.48289C5.7285 8.5381 5.79403 8.58189 5.86616 8.61176C5.93829 8.64164 6.01559 8.65702 6.09367 8.65702C6.17174 8.65702 6.24904 8.64164 6.32117 8.61176C6.3933 8.58189 6.45884 8.5381 6.51404 8.48289L10.0765 4.92039C10.1318 4.86524 10.1757 4.79972 10.2056 4.72758C10.2356 4.65545 10.251 4.57812 10.251 4.50002C10.251 4.42192 10.2356 4.34459 10.2056 4.27245C10.1757 4.20032 10.1318 4.1348 10.0765 4.07964L6.51404 0.517143C6.40255 0.405652 6.25134 0.343018 6.09367 0.343018C5.93599 0.343018 5.78478 0.405652 5.67329 0.517143C5.5618 0.628633 5.49917 0.779847 5.49917 0.937518C5.49917 1.09519 5.5618 1.2464 5.67329 1.35789L8.22285 3.90627H1.34367C1.18619 3.90627 1.03517 3.96882 0.923821 4.08017C0.812471 4.19152 0.749916 4.34255 0.749916 4.50002Z" fill="white"/>
</svg>
