<svg width="16" height="15" viewBox="0 0 16 15" fill="none" xmlns="http://www.w3.org/2000/svg">
<path d="M1 7.99997L12.86 7.99997L9.23 12.36C9.06026 12.5642 8.9786 12.8275 9.00298 13.0919C9.02736 13.3563 9.15578 13.6002 9.36 13.77C9.56422 13.9397 9.8275 14.0214 10.0919 13.997C10.3563 13.9726 10.6003 13.8442 10.77 13.64L15.77 7.63997C15.8036 7.59224 15.8337 7.54211 15.86 7.48997C15.86 7.43997 15.86 7.40997 15.93 7.35997C15.9753 7.24531 15.9991 7.12326 16 6.99997C15.9991 6.87668 15.9753 6.75463 15.93 6.63997C15.93 6.58997 15.93 6.55997 15.86 6.50997C15.8337 6.45783 15.8036 6.40769 15.77 6.35997L10.77 0.359969C10.676 0.247087 10.5582 0.156306 10.4252 0.0940847C10.2921 0.0318632 10.1469 -0.00026989 10 -3.14713e-05C9.76635 -0.000488281 9.53991 0.0808868 9.36 0.229968C9.25874 0.313917 9.17504 0.417019 9.11369 0.533366C9.05234 0.649714 9.01454 0.77702 9.00246 0.907996C8.99039 1.03897 9.00427 1.17105 9.04331 1.29665C9.08236 1.42225 9.1458 1.53892 9.23 1.63997L12.86 5.99997L1 5.99997C0.734783 5.99997 0.480429 6.10533 0.292892 6.29286C0.105356 6.4804 0 6.73475 0 6.99997C0 7.26518 0.105356 7.51954 0.292892 7.70708C0.480429 7.89461 0.734783 7.99997 1 7.99997Z" fill="#005D71"/>
</svg>
