<svg width="18" height="20" viewBox="0 0 18 20" fill="none" xmlns="http://www.w3.org/2000/svg">
<path d="M5.33333 11.8333C5.07361 11.8333 4.85575 11.7453 4.67975 11.5693C4.50436 11.3939 4.41667 11.1763 4.41667 10.9166C4.41667 10.6569 4.50436 10.439 4.67975 10.263C4.85575 10.0876 5.07361 9.99992 5.33333 9.99992C5.59306 9.99992 5.81092 10.0876 5.98692 10.263C6.16231 10.439 6.25 10.6569 6.25 10.9166C6.25 11.1763 6.16231 11.3939 5.98692 11.5693C5.81092 11.7453 5.59306 11.8333 5.33333 11.8333ZM9 11.8333C8.74028 11.8333 8.52272 11.7453 8.34733 11.5693C8.17133 11.3939 8.08333 11.1763 8.08333 10.9166C8.08333 10.6569 8.17133 10.439 8.34733 10.263C8.52272 10.0876 8.74028 9.99992 9 9.99992C9.25972 9.99992 9.47758 10.0876 9.65358 10.263C9.82897 10.439 9.91667 10.6569 9.91667 10.9166C9.91667 11.1763 9.82897 11.3939 9.65358 11.5693C9.47758 11.7453 9.25972 11.8333 9 11.8333ZM12.6667 11.8333C12.4069 11.8333 12.1894 11.7453 12.014 11.5693C11.838 11.3939 11.75 11.1763 11.75 10.9166C11.75 10.6569 11.838 10.439 12.014 10.263C12.1894 10.0876 12.4069 9.99992 12.6667 9.99992C12.9264 9.99992 13.1439 10.0876 13.3193 10.263C13.4953 10.439 13.5833 10.6569 13.5833 10.9166C13.5833 11.1763 13.4953 11.3939 13.3193 11.5693C13.1439 11.7453 12.9264 11.8333 12.6667 11.8333ZM2.58333 19.1666C2.07917 19.1666 1.64742 18.9872 1.28808 18.6285C0.929361 18.2692 0.75 17.8374 0.75 17.3333V4.49992C0.75 3.99575 0.929361 3.56431 1.28808 3.20559C1.64742 2.84625 2.07917 2.66659 2.58333 2.66659H3.5V0.833252H5.33333V2.66659H12.6667V0.833252H14.5V2.66659H15.4167C15.9208 2.66659 16.3526 2.84625 16.7119 3.20559C17.0706 3.56431 17.25 3.99575 17.25 4.49992V17.3333C17.25 17.8374 17.0706 18.2692 16.7119 18.6285C16.3526 18.9872 15.9208 19.1666 15.4167 19.1666H2.58333ZM2.58333 17.3333H15.4167V8.16659H2.58333V17.3333Z" fill="#ABABAB"/>
</svg>
