<svg width="16" height="15" viewBox="0 0 16 15" fill="none" xmlns="http://www.w3.org/2000/svg">
<path d="M14.7867 7.34062C14.2246 5.91452 13.2488 4.68123 11.9798 3.79317C10.7109 2.9051 9.20439 2.40121 7.64662 2.34375C6.08885 2.40121 4.58238 2.9051 3.31342 3.79317C2.04445 4.68123 1.06861 5.91452 0.506499 7.34062C0.468537 7.44361 0.468537 7.55639 0.506499 7.65938C1.06861 9.08548 2.04445 10.3188 3.31342 11.2068C4.58238 12.0949 6.08885 12.5988 7.64662 12.6562C9.20439 12.5988 10.7109 12.0949 11.9798 11.2068C13.2488 10.3188 14.2246 9.08548 14.7867 7.65938C14.8247 7.55639 14.8247 7.44361 14.7867 7.34062ZM7.64662 11.7188C5.11365 11.7188 2.4373 9.87656 1.46712 7.5C2.4373 5.12344 5.11365 3.28125 7.64662 3.28125C10.1796 3.28125 12.8559 5.12344 13.8261 7.5C12.8559 9.87656 10.1796 11.7188 7.64662 11.7188Z" fill="#ABABAB"/>
<path d="M7.64682 4.6875C7.07968 4.6875 6.52527 4.85245 6.05371 5.16149C5.58215 5.47053 5.21461 5.90979 4.99758 6.4237C4.78054 6.93762 4.72375 7.50312 4.8344 8.04869C4.94504 8.59426 5.21815 9.0954 5.61917 9.48874C6.0202 9.88207 6.53115 10.1499 7.08739 10.2585C7.64364 10.367 8.2202 10.3113 8.74417 10.0984C9.26814 9.88554 9.71598 9.52505 10.0311 9.06254C10.3462 8.60003 10.5143 8.05626 10.5143 7.5C10.5143 6.75408 10.2122 6.03871 9.67446 5.51126C9.13669 4.98382 8.40733 4.6875 7.64682 4.6875ZM7.64682 9.375C7.26872 9.375 6.89912 9.26503 6.58475 9.05901C6.27037 8.85298 6.02535 8.56014 5.88066 8.21753C5.73596 7.87492 5.69811 7.49792 5.77187 7.13421C5.84563 6.77049 6.0277 6.4364 6.29506 6.17417C6.56241 5.91195 6.90304 5.73337 7.27387 5.66103C7.6447 5.58868 8.02907 5.62581 8.37838 5.76773C8.7277 5.90964 9.02626 6.14996 9.23632 6.45831C9.44638 6.76665 9.5585 7.12916 9.5585 7.5C9.5585 7.99728 9.35709 8.47419 8.99858 8.82582C8.64007 9.17746 8.15383 9.375 7.64682 9.375Z" fill="#ABABAB"/>
</svg>
