<svg width="21" height="20" viewBox="0 0 21 20" fill="none" xmlns="http://www.w3.org/2000/svg">
<path fill-rule="evenodd" clip-rule="evenodd" d="M5.5 0C4.17392 0 2.90215 0.526784 1.96447 1.46447C1.02678 2.40215 0.5 3.67392 0.5 5V15C0.5 16.3261 1.02678 17.5979 1.96447 18.5355C2.90215 19.4732 4.17392 20 5.5 20H15.5C16.8261 20 18.0979 19.4732 19.0355 18.5355C19.9732 17.5979 20.5 16.3261 20.5 15V5C20.5 3.67392 19.9732 2.40215 19.0355 1.46447C18.0979 0.526784 16.8261 0 15.5 0H5.5ZM14.23 8.684C14.3198 8.58814 14.3899 8.47552 14.4362 8.35258C14.4825 8.22963 14.5041 8.09878 14.4999 7.96747C14.4956 7.83617 14.4655 7.707 14.4113 7.58732C14.3571 7.46765 14.2799 7.35982 14.184 7.27C14.0881 7.18018 13.9755 7.11011 13.8526 7.06381C13.7296 7.01751 13.5988 6.99588 13.4675 7.00015C13.3362 7.00442 13.207 7.03451 13.0873 7.08871C12.9677 7.1429 12.8598 7.22014 12.77 7.316L9.687 10.606L8.164 9.253C7.96446 9.08712 7.70825 9.0053 7.4495 9.02482C7.19075 9.04434 6.94972 9.16368 6.77732 9.35762C6.60493 9.55156 6.51467 9.80492 6.52562 10.0642C6.53657 10.3234 6.64787 10.5683 6.836 10.747L9.086 12.747C9.28069 12.9199 9.53515 13.0101 9.79529 12.9983C10.0554 12.9866 10.3007 12.8738 10.479 12.684L14.229 8.684H14.23Z" fill="#64B7C8"/>
</svg>
