<svg width="22" height="21" viewBox="0 0 22 21" fill="none" xmlns="http://www.w3.org/2000/svg">
<path fill-rule="evenodd" clip-rule="evenodd" d="M5.5 0C4.04131 0 2.64236 0.527841 1.61091 1.4674C0.579463 2.40697 0 3.68129 0 5.01003V15.0301C0 16.3588 0.579463 17.6332 1.61091 18.5727C2.64236 19.5123 4.04131 20.0401 5.5 20.0401H16.5C17.9587 20.0401 19.3576 19.5123 20.3891 18.5727C21.4205 17.6332 22 16.3588 22 15.0301V5.01003C22 3.68129 21.4205 2.40697 20.3891 1.4674C19.3576 0.527841 17.9587 0 16.5 0H5.5ZM15.103 8.70143C15.2018 8.60537 15.2789 8.49252 15.3298 8.36933C15.3807 8.24615 15.4045 8.11503 15.3998 7.98346C15.3951 7.8519 15.362 7.72246 15.3024 7.60255C15.2428 7.48264 15.1579 7.37459 15.0524 7.28459C14.9469 7.19458 14.8231 7.12438 14.6878 7.07799C14.5526 7.03159 14.4087 7.00992 14.2642 7.0142C14.1198 7.01848 13.9777 7.04863 13.8461 7.10293C13.7144 7.15723 13.5958 7.23462 13.497 7.33068L10.1057 10.6273L8.4304 9.27157C8.2109 9.10535 7.92908 9.02337 7.64445 9.04293C7.35982 9.06249 7.09469 9.18207 6.90506 9.3764C6.71542 9.57073 6.61614 9.8246 6.62819 10.0844C6.64023 10.3442 6.76266 10.5895 6.9696 10.7686L9.4446 12.7726C9.65876 12.9459 9.93867 13.0362 10.2248 13.0244C10.511 13.0126 10.7808 12.8996 10.9769 12.7095L15.1019 8.70143H15.103Z" fill="#294B97"/>
</svg>
