<svg width="36" height="36" viewBox="0 0 36 36" fill="none" xmlns="http://www.w3.org/2000/svg">
<g clip-path="url(#clip0_27739_51)">
<path d="M28.54 12.8349H7.45996C7.19474 12.8349 6.94039 12.7321 6.75285 12.549C6.56532 12.3658 6.45996 12.1175 6.45996 11.8585C6.45996 11.5995 6.56532 11.3512 6.75285 11.1681C6.94039 10.985 7.19474 10.8821 7.45996 10.8821H28.54C28.8052 10.8821 29.0595 10.985 29.2471 11.1681C29.4346 11.3512 29.54 11.5995 29.54 11.8585C29.54 12.1175 29.4346 12.3658 29.2471 12.549C29.0595 12.7321 28.8052 12.8349 28.54 12.8349Z" fill="#ABABAB"/>
<path d="M21.17 18.6936H7.45996C7.19474 18.6936 6.94039 18.5907 6.75285 18.4076C6.56532 18.2245 6.45996 17.9761 6.45996 17.7172C6.45996 17.4582 6.56532 17.2098 6.75285 17.0267C6.94039 16.8436 7.19474 16.7407 7.45996 16.7407H21.17C21.4352 16.7407 21.6895 16.8436 21.8771 17.0267C22.0646 17.2098 22.17 17.4582 22.17 17.7172C22.17 17.9761 22.0646 18.2245 21.8771 18.4076C21.6895 18.5907 21.4352 18.6936 21.17 18.6936Z" fill="#ABABAB"/>
<path d="M13.74 24.5521H7.45996C7.19474 24.5521 6.94039 24.4492 6.75285 24.2661C6.56532 24.083 6.45996 23.8346 6.45996 23.5757C6.45996 23.3167 6.56532 23.0683 6.75285 22.8852C6.94039 22.7021 7.19474 22.5992 7.45996 22.5992H13.74C14.0052 22.5992 14.2595 22.7021 14.4471 22.8852C14.6346 23.0683 14.74 23.3167 14.74 23.5757C14.74 23.8346 14.6346 24.083 14.4471 24.2661C14.2595 24.4492 14.0052 24.5521 13.74 24.5521Z" fill="#ABABAB"/>
</g>
<defs>
<clipPath id="clip0_27739_51">
<rect width="36" height="35.1515" fill="white" transform="translate(0 0.141357)"/>
</clipPath>
</defs>
</svg>
