<svg width="47" height="47" viewBox="0 0 47 47" fill="none" xmlns="http://www.w3.org/2000/svg">
<rect width="47" height="47" rx="10" fill="#468A98"/>
<path d="M21.3335 17.8333V26.3333C21.3335 26.709 21.4828 27.0694 21.7484 27.335C22.0141 27.6007 22.3744 27.75 22.7502 27.75H28.4168C28.7926 27.75 29.1529 27.6007 29.4186 27.335C29.6842 27.0694 29.8335 26.709 29.8335 26.3333V20.1297C29.8335 19.941 29.7957 19.7542 29.7225 19.5802C29.6493 19.4063 29.542 19.2487 29.4071 19.1168L27.059 16.8204C26.7943 16.5616 26.4389 16.4167 26.0687 16.4166H22.7502C22.3744 16.4166 22.0141 16.5659 21.7484 16.8316C21.4828 17.0972 21.3335 17.4576 21.3335 17.8333V17.8333Z" stroke="white" stroke-width="2" stroke-linecap="round" stroke-linejoin="round"/>
<path d="M26.3335 27.7499V29.1666C26.3335 29.5423 26.1842 29.9026 25.9186 30.1683C25.6529 30.434 25.2926 30.5833 24.9168 30.5833H19.2502C18.8744 30.5833 18.5141 30.434 18.2484 30.1683C17.9828 29.9026 17.8335 29.5423 17.8335 29.1666V21.3749C17.8335 20.9992 17.9828 20.6389 18.2484 20.3732C18.5141 20.1075 18.8744 19.9583 19.2502 19.9583H20.6668" stroke="white" stroke-width="2" stroke-linecap="round" stroke-linejoin="round"/>
</svg>
