<svg width="19" height="18" viewBox="0 0 19 18" fill="none" xmlns="http://www.w3.org/2000/svg">
<path d="M8.3152 0.0500082C3.72631 0.540008 0.146973 4.36001 0.146973 9.00001C0.146973 11.387 1.11391 13.6761 2.83508 15.364C4.55625 17.0518 6.89065 18 9.32475 18C14.0462 18 17.9417 14.5 18.4515 10C18.5433 9.21001 17.6561 8.58001 16.8811 9.05001C16.0487 9.57107 15.0887 9.86314 14.1017 9.89565C13.1146 9.92817 12.1369 9.69993 11.2706 9.23482C10.4044 8.76972 9.68155 8.08484 9.17776 7.25187C8.67398 6.4189 8.40776 5.46846 8.40697 4.50001C8.40697 3.44001 8.7231 2.44001 9.26357 1.61001C9.72245 0.940009 9.22278 -0.0199918 8.3152 0.0500082Z" fill="#A7A7A7"/>
</svg>
