<svg width="33" height="23" viewBox="0 0 33 23" fill="none" xmlns="http://www.w3.org/2000/svg">
<path d="M22.6251 10.4583H28.7501V4.33333H22.6251V10.4583ZM4.25008 10.4583H10.3751V4.33333L4.25008 4.33333L4.25008 10.4583ZM27.0657 22.7083C26.0449 22.7083 25.2622 22.2748 24.7178 21.4078C24.1733 20.5394 24.1393 19.6458 24.6157 18.7271L26.7084 14.5417H22.6251C21.5022 14.5417 20.5412 14.1415 19.7422 13.3412C18.9419 12.5422 18.5417 11.5813 18.5417 10.4583V4.33333C18.5417 3.21042 18.9419 2.24947 19.7422 1.4505C20.5412 0.650166 21.5022 0.25 22.6251 0.25L28.7501 0.25C29.873 0.25 30.8346 0.650166 31.635 1.4505C32.4339 2.24947 32.8334 3.21042 32.8334 4.33333V13.5719C32.8334 13.8781 32.8076 14.1932 32.7558 14.5172C32.7055 14.8398 32.5952 15.1372 32.4251 15.4094L29.5157 21.1771C29.2775 21.6535 28.9372 22.0278 28.4949 22.3C28.0525 22.5722 27.5761 22.7083 27.0657 22.7083ZM8.69071 22.7083C7.66987 22.7083 6.88723 22.2748 6.34279 21.4078C5.79835 20.5394 5.76432 19.6458 6.24071 18.7271L8.33342 14.5417H4.25008C3.12716 14.5417 2.16622 14.1415 1.36725 13.3412C0.566914 12.5422 0.166748 11.5813 0.166748 10.4583L0.166748 4.33333C0.166748 3.21042 0.566914 2.24947 1.36725 1.4505C2.16622 0.650166 3.12716 0.25 4.25008 0.25L10.3751 0.25C11.498 0.25 12.4596 0.650166 13.26 1.4505C14.0589 2.24947 14.4584 3.21042 14.4584 4.33333L14.4584 13.5719C14.4584 13.8781 14.4332 14.1932 14.3829 14.5172C14.3312 14.8398 14.2202 15.1372 14.0501 15.4094L11.1407 21.1771C10.9025 21.6535 10.5622 22.0278 10.1199 22.3C9.67751 22.5722 9.20112 22.7083 8.69071 22.7083ZM4.25008 10.4583L4.25008 4.33333L10.3751 4.33333V10.4583H4.25008ZM22.6251 10.4583V4.33333H28.7501V10.4583H22.6251Z" fill="#294B97"/>
</svg>
