<svg width="33" height="23" viewBox="0 0 33 23" fill="none" xmlns="http://www.w3.org/2000/svg">
<path d="M10.3749 12.5417L4.24992 12.5417V18.6667L10.3749 18.6667V12.5417ZM28.7499 12.5417L22.6249 12.5417L22.6249 18.6667L28.7499 18.6667L28.7499 12.5417ZM5.93429 0.291666C6.95513 0.291666 7.73776 0.725177 8.28221 1.59221C8.82665 2.46059 8.86068 3.35416 8.38429 4.27291L6.29158 8.45833L10.3749 8.45833C11.4978 8.45833 12.4588 8.8585 13.2578 9.65883C14.0581 10.4578 14.4583 11.4187 14.4583 12.5417V18.6667C14.4583 19.7896 14.0581 20.7505 13.2578 21.5495C12.4588 22.3498 11.4978 22.75 10.3749 22.75L4.24992 22.75C3.127 22.75 2.16538 22.3498 1.36504 21.5495C0.566069 20.7505 0.166584 19.7896 0.166584 18.6667L0.166584 9.42813C0.166584 9.12188 0.192445 8.80678 0.244167 8.48283C0.294528 8.16025 0.404782 7.86285 0.574921 7.59062L3.48429 1.82292C3.72249 1.34653 4.06276 0.972223 4.50513 0.700001C4.94749 0.427779 5.42388 0.291666 5.93429 0.291666ZM24.3093 0.291666C25.3301 0.291666 26.1128 0.725177 26.6572 1.59221C27.2017 2.46059 27.2357 3.35416 26.7593 4.27291L24.6666 8.45833L28.7499 8.45833C29.8728 8.45833 30.8338 8.8585 31.6328 9.65883C32.4331 10.4578 32.8333 11.4187 32.8333 12.5417L32.8333 18.6667C32.8333 19.7896 32.4331 20.7505 31.6328 21.5495C30.8338 22.3498 29.8728 22.75 28.7499 22.75H22.6249C21.502 22.75 20.5404 22.3498 19.74 21.5495C18.9411 20.7505 18.5416 19.7896 18.5416 18.6667L18.5416 9.42813C18.5416 9.12188 18.5668 8.80678 18.6171 8.48283C18.6688 8.16025 18.7798 7.86285 18.9499 7.59062L21.8593 1.82292C22.0975 1.34653 22.4378 0.972223 22.8801 0.700001C23.3225 0.427779 23.7989 0.291666 24.3093 0.291666ZM28.7499 12.5417L28.7499 18.6667L22.6249 18.6667L22.6249 12.5417L28.7499 12.5417ZM10.3749 12.5417V18.6667L4.24992 18.6667V12.5417L10.3749 12.5417Z" fill="#294B97"/>
</svg>
