<svg width="21" height="13" viewBox="0 0 21 13" fill="none" xmlns="http://www.w3.org/2000/svg">
<path d="M0.556112 1.27022C0.849124 0.9773 1.24648 0.812744 1.6608 0.812744C2.07512 0.812744 2.47247 0.9773 2.76549 1.27022L10.4999 9.0046L18.2342 1.27022C18.5289 0.985601 18.9236 0.828109 19.3333 0.831669C19.743 0.835229 20.1349 0.999556 20.4246 1.28926C20.7143 1.57896 20.8786 1.97085 20.8822 2.38053C20.8857 2.79022 20.7282 3.18491 20.4436 3.4796L11.6045 12.3187C11.3115 12.6116 10.9142 12.7761 10.4999 12.7761C10.0855 12.7761 9.68819 12.6116 9.39517 12.3187L0.556112 3.4796C0.263188 3.18659 0.0986328 2.78923 0.0986328 2.37491C0.0986328 1.96059 0.263188 1.56324 0.556112 1.27022Z" fill="#CDCDCD"/>
</svg>
