<svg width="11" height="11" viewBox="0 0 11 11" fill="none" xmlns="http://www.w3.org/2000/svg">
<path d="M5.50008 0.916748C4.59359 0.916748 3.70744 1.18556 2.95372 1.68918C2.19999 2.1928 1.61254 2.90862 1.26564 3.74612C0.918734 4.58361 0.827969 5.50517 1.00482 6.39425C1.18167 7.28332 1.61819 8.1 2.25918 8.74099C2.90017 9.38198 3.71684 9.8185 4.60592 9.99535C5.495 10.1722 6.41655 10.0814 7.25405 9.73453C8.09154 9.38763 8.80736 8.80017 9.31098 8.04644C9.81461 7.29272 10.0834 6.40658 10.0834 5.50008C10.0834 4.89819 9.96486 4.30219 9.73453 3.74612C9.5042 3.19004 9.16659 2.68478 8.74099 2.25918C8.31539 1.83357 7.81012 1.49597 7.25405 1.26563C6.69797 1.0353 6.10198 0.916748 5.50008 0.916748ZM5.50008 9.16675C4.77489 9.16675 4.06597 8.9517 3.46299 8.5488C2.86001 8.1459 2.39005 7.57325 2.11253 6.90325C1.835 6.23326 1.76239 5.49601 1.90387 4.78475C2.04535 4.07349 2.39457 3.42015 2.90736 2.90736C3.42015 2.39456 4.07349 2.04535 4.78475 1.90387C5.49602 1.76239 6.23326 1.835 6.90326 2.11252C7.57325 2.39004 8.14591 2.86001 8.5488 3.46299C8.9517 4.06597 9.16675 4.77488 9.16675 5.50008C9.16675 6.47254 8.78044 7.40517 8.09281 8.09281C7.40517 8.78044 6.47254 9.16675 5.50008 9.16675Z" fill="#7C7C7C"/>
<path d="M7.33341 5.04159H5.95841V3.66659C5.95841 3.54503 5.91013 3.42845 5.82417 3.34249C5.73822 3.25654 5.62164 3.20825 5.50008 3.20825C5.37852 3.20825 5.26195 3.25654 5.17599 3.34249C5.09004 3.42845 5.04175 3.54503 5.04175 3.66659V5.49992C5.04175 5.62148 5.09004 5.73806 5.17599 5.82401C5.26195 5.90996 5.37852 5.95825 5.50008 5.95825H7.33341C7.45497 5.95825 7.57155 5.90996 7.65751 5.82401C7.74346 5.73806 7.79175 5.62148 7.79175 5.49992C7.79175 5.37836 7.74346 5.26178 7.65751 5.17583C7.57155 5.08987 7.45497 5.04159 7.33341 5.04159Z" fill="#7C7C7C"/>
</svg>
