<svg width="18" height="16" viewBox="0 0 18 16" fill="none" xmlns="http://www.w3.org/2000/svg">
<path d="M17.3332 4.83326V12.558C17.3332 13.3456 17.0685 14.1033 16.5934 14.6758C16.1183 15.2483 15.4688 15.5921 14.7782 15.6367L14.6248 15.6414H3.37484C2.68306 15.6414 2.01748 15.3401 1.51464 14.7992C1.01181 14.2583 0.709836 13.5189 0.670671 12.7325L0.666504 12.558V4.83326L8.70984 9.63013C8.79932 9.68349 8.89882 9.71136 8.99984 9.71136C9.10085 9.71136 9.20036 9.68349 9.28984 9.63013L17.3332 4.83326ZM3.37484 0.461426H14.6248C15.2962 0.461334 15.9436 0.745097 16.4415 1.25768C16.9395 1.77026 17.2525 2.47513 17.3198 3.23556L8.99984 8.19752L0.679837 3.23556C0.74444 2.50533 1.03571 1.82527 1.5013 1.31764C1.96688 0.810004 2.57624 0.508092 3.21984 0.46617L3.37484 0.461426H14.6248H3.37484Z" fill="white"/>
</svg>
