<svg width="19" height="18" viewBox="0 0 19 18" fill="none" xmlns="http://www.w3.org/2000/svg">
<path d="M16.15 0.449951H2.84995C1.80495 0.449951 0.949951 1.30495 0.949951 2.34995V15.65C0.949951 16.6959 1.80495 17.55 2.84995 17.55H9.49995V10.9H7.59995V8.5487H9.49995V6.6012C9.49995 4.5454 10.6514 3.1014 13.0777 3.1014L14.7905 3.1033V5.57805H13.6534C12.7091 5.57805 12.35 6.28675 12.35 6.94415V8.54965H14.7896L14.25 10.9H12.35V17.55H16.15C17.195 17.55 18.05 16.6959 18.05 15.65V2.34995C18.05 1.30495 17.195 0.449951 16.15 0.449951Z" fill="white"/>
</svg>
