<svg width="50" height="50" viewBox="0 0 50 50" fill="none" xmlns="http://www.w3.org/2000/svg">
<circle cx="25" cy="25" r="25" fill="#F1F1F1"/>
<path d="M25.0001 10.6C17.0471 10.6 10.6001 17.047 10.6001 25C10.6001 32.953 17.0471 39.4 25.0001 39.4C32.9531 39.4 39.4001 32.953 39.4001 25C39.4001 17.047 32.9531 10.6 25.0001 10.6ZM28.4111 20.551H26.2466C25.9901 20.551 25.7051 20.8885 25.7051 21.337V22.9H28.4126L28.0031 25.129H25.7051V31.8205H23.1506V25.129H20.8331V22.9H23.1506V21.589C23.1506 19.708 24.4556 18.1795 26.2466 18.1795H28.4111V20.551Z" fill="#7D7D7D"/>
</svg>
