<svg width="16" height="15" viewBox="0 0 16 15" fill="none" xmlns="http://www.w3.org/2000/svg">
<path d="M5.14415 1.5C4.69785 1.49995 4.26561 1.65304 3.92232 1.93276C3.57903 2.21247 3.34635 2.60118 3.26458 3.0315C2.82584 3.11169 2.42954 3.33992 2.14435 3.67662C1.85916 4.01332 1.70307 4.43727 1.70313 4.875V10.125C1.70313 10.6223 1.90453 11.0992 2.26304 11.4508C2.62155 11.8025 3.1078 12 3.6148 12H3.99714V12.771C3.99713 12.9088 4.03582 13.0439 4.10896 13.1616C4.1821 13.2792 4.28688 13.3748 4.41178 13.4379C4.53668 13.501 4.67689 13.5291 4.81701 13.5191C4.95713 13.5092 5.09174 13.4616 5.20609 13.3815L7.17894 12H10.4969C11.0039 12 11.4901 11.8025 11.8486 11.4508C12.2071 11.0992 12.4085 10.6223 12.4085 10.125V9.7125C12.8403 9.62605 13.2284 9.39593 13.5071 9.06109C13.7858 8.72625 13.938 8.30724 13.9379 7.875V4.125C13.9379 3.42881 13.6559 2.76113 13.154 2.26884C12.6521 1.77656 11.9713 1.5 11.2615 1.5H5.14415ZM10.4969 11.25H6.93348L4.76181 12.771V11.25H3.6148C3.3106 11.25 3.01885 11.1315 2.80375 10.9205C2.58864 10.7095 2.4678 10.4234 2.4678 10.125V4.875C2.4678 4.57663 2.58864 4.29048 2.80375 4.0795C3.01885 3.86853 3.3106 3.75 3.6148 3.75H10.4969C10.8011 3.75 11.0928 3.86853 11.3079 4.0795C11.523 4.29048 11.6439 4.57663 11.6439 4.875V10.125C11.6439 10.4234 11.523 10.7095 11.3079 10.9205C11.0928 11.1315 10.8011 11.25 10.4969 11.25ZM10.4969 3H4.06214C4.14124 2.78057 4.28778 2.5906 4.48157 2.45627C4.67536 2.32195 4.90685 2.24988 5.14415 2.25H11.2615C11.7685 2.25 12.2548 2.44754 12.6133 2.79917C12.9718 3.15081 13.1732 3.62772 13.1732 4.125V7.875C13.1733 8.10774 13.0998 8.3348 12.9629 8.52487C12.8259 8.71494 12.6323 8.85867 12.4085 8.93625V4.875C12.4085 4.37772 12.2071 3.90081 11.8486 3.54917C11.4901 3.19754 11.0039 3 10.4969 3Z" fill="#ABABAB"/>
</svg>
