<svg width="14" height="13" viewBox="0 0 14 13" fill="none" xmlns="http://www.w3.org/2000/svg">
<path d="M2.10395 6.03579C1.988 6.03581 1.8761 6.07756 1.78945 6.15312C1.70281 6.22869 1.64746 6.33282 1.63389 6.44575L1.63058 6.50008V10.2144C1.63058 10.6908 1.81729 11.1491 2.1521 11.4943C2.48691 11.8395 2.94419 12.0454 3.42938 12.0692L3.52405 12.0715H10.1512C10.637 12.0715 11.1042 11.8884 11.4562 11.56C11.8082 11.2316 12.018 10.7831 12.0423 10.3072L12.0447 10.2144V6.50008C12.0445 6.38174 11.9983 6.26792 11.9155 6.18187C11.8327 6.09582 11.7195 6.04404 11.5991 6.0371C11.4786 6.03017 11.36 6.0686 11.2675 6.14456C11.175 6.22051 11.1155 6.32825 11.1013 6.44575L11.0979 6.50008V10.2144C11.0979 10.4485 11.0076 10.6741 10.8452 10.8458C10.6828 11.0174 10.4603 11.1226 10.2222 11.1401L10.1512 11.1429H3.52405C3.28528 11.1429 3.05535 11.0544 2.88031 10.8951C2.70527 10.7358 2.59806 10.5175 2.58015 10.284L2.57731 10.2144V6.50008C2.57731 6.37694 2.52744 6.25885 2.43867 6.17178C2.34989 6.08471 2.22949 6.03579 2.10395 6.03579ZM10.1848 4.0194L7.1723 1.06468C7.09079 0.984743 6.98234 0.936721 6.8673 0.929627C6.75226 0.922532 6.63853 0.956851 6.54745 1.02615L6.50296 1.06468L3.49044 4.0194C3.40554 4.10295 3.35625 4.21506 3.35258 4.33297C3.34891 4.45087 3.39114 4.56573 3.47068 4.65421C3.55022 4.74268 3.66112 4.79815 3.78084 4.80933C3.90057 4.82052 4.02014 4.78659 4.11529 4.71443L4.15978 4.6759L6.36426 2.51372V8.35722C6.36427 8.47094 6.40684 8.5807 6.48389 8.66568C6.56093 8.75066 6.6671 8.80495 6.78224 8.81825L6.83763 8.8215C6.95357 8.82149 7.06548 8.77974 7.15212 8.70417C7.23876 8.6286 7.29412 8.52448 7.30768 8.41154L7.311 8.35722V2.51372L9.51547 4.6759C9.59698 4.75584 9.70543 4.80386 9.82047 4.81095C9.93551 4.81805 10.0492 4.78373 10.1403 4.71443L10.1848 4.6759C10.2663 4.59595 10.3153 4.48958 10.3225 4.37675C10.3297 4.26392 10.2948 4.15237 10.2241 4.06304L10.1848 4.0194L7.1723 1.06468L10.1848 4.0194Z" fill="#ABABAB"/>
</svg>
