<svg width="23" height="23" viewBox="0 0 23 23" fill="none" xmlns="http://www.w3.org/2000/svg">
<path d="M3.625 11.5H1.375L11.5 1.375L21.625 11.5H19.375M3.625 11.5V19.375C3.625 19.9717 3.86205 20.544 4.28401 20.966C4.70597 21.3879 5.27826 21.625 5.875 21.625H17.125C17.7217 21.625 18.294 21.3879 18.716 20.966C19.1379 20.544 19.375 19.9717 19.375 19.375V11.5" stroke="#468A98" stroke-width="2" stroke-linecap="round" stroke-linejoin="round"/>
<path d="M8.125 21.625V14.875C8.125 14.2783 8.36205 13.706 8.78401 13.284C9.20597 12.8621 9.77826 12.625 10.375 12.625H12.625C13.2217 12.625 13.794 12.8621 14.216 13.284C14.6379 13.706 14.875 14.2783 14.875 14.875V21.625" stroke="#468A98" stroke-width="2" stroke-linecap="round" stroke-linejoin="round"/>
</svg>
