<svg width="19" height="18" viewBox="0 0 19 18" fill="none" xmlns="http://www.w3.org/2000/svg">
<path d="M9.5 6.91641C9.05262 6.91656 8.61533 7.03889 8.24343 7.26793C7.87152 7.49698 7.58171 7.82244 7.41062 8.20318C7.23953 8.58393 7.19485 9.00284 7.28223 9.40697C7.36961 9.81109 7.58513 10.1823 7.90154 10.4736C8.21795 10.7649 8.62103 10.9633 9.05983 11.0436C9.49863 11.1239 9.95343 11.0826 10.3667 10.9249C10.7801 10.7672 11.1333 10.5001 11.3818 10.1575C11.6304 9.81487 11.763 9.41206 11.763 9C11.7626 8.44739 11.524 7.91754 11.0997 7.52686C10.6753 7.13618 10.1 6.91661 9.5 6.91641ZM14.789 5.31484C14.6739 5.04603 14.5 4.80188 14.2781 4.59754C14.0563 4.3932 13.7912 4.23302 13.4993 4.12695C12.6087 3.80312 10.4882 3.87578 9.5 3.87578C8.51183 3.87578 6.39341 3.80039 5.50025 4.12695C5.20839 4.23302 4.94332 4.3932 4.72146 4.59754C4.4996 4.80188 4.3257 5.04603 4.21054 5.31484C3.85937 6.13516 3.93783 8.09023 3.93783 8.99961C3.93783 9.90898 3.85937 11.8617 4.21223 12.6848C4.3274 12.9536 4.5013 13.1977 4.72316 13.4021C4.94501 13.6064 5.21009 13.7666 5.50194 13.8727C6.39257 14.1965 8.5131 14.1238 9.5017 14.1238C10.4903 14.1238 12.6079 14.1992 13.501 13.8727C13.7929 13.7666 14.058 13.6064 14.2798 13.4021C14.5017 13.1977 14.6756 12.9536 14.7907 12.6848C15.1449 11.8645 15.0634 9.90938 15.0634 9C15.0634 8.09062 15.1449 6.13828 14.7907 5.31523L14.789 5.31484ZM9.5 12.2031C8.81218 12.2031 8.13981 12.0153 7.5679 11.6633C6.996 11.3113 6.55026 10.8111 6.28704 10.2258C6.02383 9.64049 5.95496 8.99645 6.08914 8.3751C6.22333 7.75376 6.55455 7.18301 7.04091 6.73505C7.52727 6.28708 8.14693 5.98202 8.82154 5.85842C9.49614 5.73483 10.1954 5.79826 10.8308 6.0407C11.4663 6.28314 12.0095 6.69369 12.3916 7.22044C12.7737 7.74719 12.9777 8.36648 12.9777 9C12.9782 9.42078 12.8887 9.83754 12.7141 10.2264C12.5395 10.6152 12.2834 10.9686 11.9603 11.2661C11.6373 11.5636 11.2537 11.7996 10.8315 11.9603C10.4093 12.1211 9.95685 12.2036 9.5 12.2031ZM13.121 6.41016C12.9605 6.41023 12.8035 6.36645 12.6699 6.28434C12.5364 6.20224 12.4323 6.0855 12.3708 5.94889C12.3093 5.81228 12.2931 5.66194 12.3244 5.51688C12.3557 5.37182 12.433 5.23857 12.5465 5.13397C12.66 5.02936 12.8046 4.95812 12.9621 4.92924C13.1196 4.90036 13.2828 4.91514 13.4311 4.97172C13.5795 5.0283 13.7063 5.12412 13.7955 5.24708C13.8847 5.37004 13.9323 5.51461 13.9323 5.6625C13.9328 5.76071 13.9122 5.85803 13.8717 5.94889C13.8312 6.03974 13.7717 6.12234 13.6964 6.19195C13.6212 6.26156 13.5318 6.3168 13.4334 6.35452C13.3349 6.39223 13.2294 6.41167 13.1227 6.41172L13.121 6.41016ZM16.9643 0.25H2.03571C1.49581 0.25 0.978017 0.447544 0.596247 0.799175C0.214476 1.15081 0 1.62772 0 2.125L0 15.875C0 16.3723 0.214476 16.8492 0.596247 17.2008C0.978017 17.5525 1.49581 17.75 2.03571 17.75H16.9643C17.5042 17.75 18.022 17.5525 18.4038 17.2008C18.7855 16.8492 19 16.3723 19 15.875V2.125C19 1.62772 18.7855 1.15081 18.4038 0.799175C18.022 0.447544 17.5042 0.25 16.9643 0.25ZM16.2382 11.5781C16.1835 12.5793 15.9354 13.4664 15.1419 14.1953C14.3484 14.9242 13.3861 15.1574 12.3004 15.2051C11.1803 15.2633 7.82223 15.2633 6.70216 15.2051C5.61518 15.1547 4.65542 14.9258 3.86065 14.1953C3.06587 13.4648 2.81607 12.5773 2.76433 11.5781C2.70114 10.5461 2.70114 7.45273 2.76433 6.42188C2.81904 5.4207 3.06417 4.53359 3.86065 3.80469C4.65712 3.07578 5.61942 2.84531 6.70216 2.79766C7.82223 2.73945 11.1803 2.73945 12.3004 2.79766C13.3874 2.84805 14.3501 3.07695 15.1419 3.80742C15.9337 4.53789 16.1865 5.42539 16.2382 6.42656C16.3014 7.45469 16.3014 10.5453 16.2382 11.5781Z" fill="white"/>
</svg>
