<svg width="50" height="50" viewBox="0 0 50 50" fill="none" xmlns="http://www.w3.org/2000/svg">
<circle cx="25" cy="25" r="25" fill="#F1F1F1"/>
<path d="M29.5001 25C29.5001 26.1934 29.026 27.338 28.1821 28.182C27.3382 29.0259 26.1936 29.5 25.0001 29.5C23.8066 29.5 22.662 29.0259 21.8181 28.182C20.9742 27.338 20.5001 26.1934 20.5001 25C20.5001 24.7435 20.5271 24.493 20.5736 24.25H19.0001V30.2455C19.0001 30.6625 19.3376 31 19.7546 31H30.2471C30.4469 30.9996 30.6385 30.9199 30.7796 30.7785C30.9208 30.637 31.0001 30.4453 31.0001 30.2455V24.25H29.4266C29.4731 24.493 29.5001 24.7435 29.5001 25ZM25.0001 28C25.3942 27.9999 25.7843 27.9222 26.1484 27.7713C26.5124 27.6204 26.8432 27.3993 27.1217 27.1205C27.4003 26.8418 27.6213 26.511 27.772 26.1469C27.9227 25.7828 28.0002 25.3925 28.0001 24.9985C28 24.6044 27.9223 24.2142 27.7714 23.8502C27.6205 23.4862 27.3994 23.1554 27.1207 22.8768C26.842 22.5983 26.5111 22.3773 26.147 22.2266C25.7829 22.0759 25.3927 21.9984 24.9986 21.9985C24.2027 21.9987 23.4396 22.315 22.877 22.8779C22.3144 23.4408 21.9984 24.2041 21.9986 25C21.9988 25.7958 22.3151 26.559 22.878 27.1216C23.4409 27.6842 24.2043 28.0002 25.0001 28ZM28.6001 21.85H30.3986C30.5181 21.85 30.6327 21.8026 30.7173 21.7183C30.802 21.6339 30.8497 21.5195 30.8501 21.4V19.6015C30.8501 19.4817 30.8025 19.3669 30.7179 19.2822C30.6332 19.1975 30.5183 19.15 30.3986 19.15H28.6001C28.4804 19.15 28.3655 19.1975 28.2808 19.2822C28.1962 19.3669 28.1486 19.4817 28.1486 19.6015V21.4C28.1501 21.6475 28.3526 21.85 28.6001 21.85ZM25.0001 10.6C21.181 10.6 17.5183 12.1171 14.8178 14.8176C12.1172 17.5182 10.6001 21.1809 10.6001 25C10.6001 28.8191 12.1172 32.4818 14.8178 35.1823C17.5183 37.8828 21.181 39.4 25.0001 39.4C26.8911 39.4 28.7637 39.0275 30.5107 38.3038C32.2578 37.5802 33.8453 36.5195 35.1824 35.1823C36.5196 33.8451 37.5803 32.2577 38.304 30.5106C39.0276 28.7635 39.4001 26.891 39.4001 25C39.4001 23.1089 39.0276 21.2364 38.304 19.4893C37.5803 17.7422 36.5196 16.1548 35.1824 14.8176C33.8453 13.4805 32.2578 12.4198 30.5107 11.6961C28.7637 10.9724 26.8911 10.6 25.0001 10.6ZM32.5001 30.8335C32.5001 31.75 31.7501 32.5 30.8336 32.5H19.1666C18.2501 32.5 17.5001 31.75 17.5001 30.8335V19.1665C17.5001 18.25 18.2501 17.5 19.1666 17.5H30.8336C31.7501 17.5 32.5001 18.25 32.5001 19.1665V30.8335Z" fill="#7D7D7D"/>
</svg>
