<svg width="51" height="52" viewBox="0 0 51 52" fill="none" xmlns="http://www.w3.org/2000/svg">
<circle cx="25.5" cy="25.7368" r="24.5" stroke="#8C8C8C" stroke-width="2"/>
<path d="M36.1836 21.6179C36.171 20.6712 35.9938 19.7339 35.6598 18.8479C35.3703 18.1006 34.928 17.4219 34.3613 16.8552C33.7946 16.2885 33.1159 15.8462 32.3686 15.5566C31.494 15.2283 30.5701 15.0508 29.6361 15.0316C28.4336 14.9779 28.0523 14.9629 24.9998 14.9629C21.9473 14.9629 21.5561 14.9629 20.3623 15.0316C19.4288 15.051 18.5053 15.2285 17.6311 15.5566C16.8837 15.846 16.2049 16.2882 15.6381 16.8549C15.0714 17.4217 14.6292 18.1005 14.3398 18.8479C14.0109 19.7218 13.8337 20.6455 13.8161 21.5791C13.7623 22.7829 13.7461 23.1641 13.7461 26.2166C13.7461 29.2691 13.7461 29.6591 13.8161 30.8541C13.8348 31.7891 14.0111 32.7116 14.3398 33.5879C14.6297 34.3351 15.0722 35.0136 15.6391 35.5801C16.2061 36.1466 16.8849 36.5886 17.6323 36.8779C18.5041 37.2194 19.4278 37.4096 20.3636 37.4404C21.5673 37.4941 21.9486 37.5104 25.0011 37.5104C28.0536 37.5104 28.4448 37.5104 29.6386 37.4404C30.5725 37.422 31.4965 37.2449 32.3711 36.9166C33.1182 36.6267 33.7967 36.1844 34.3634 35.6177C34.9301 35.051 35.3724 34.3725 35.6623 33.6254C35.9911 32.7504 36.1673 31.8279 36.1861 30.8916C36.2398 29.6891 36.2561 29.3079 36.2561 26.2541C36.2536 23.2016 36.2536 22.8141 36.1836 21.6179ZM24.9923 31.9891C21.7998 31.9891 19.2136 29.4029 19.2136 26.2104C19.2136 23.0179 21.7998 20.4316 24.9923 20.4316C26.525 20.4316 27.9948 21.0405 29.0785 22.1242C30.1623 23.2079 30.7711 24.6778 30.7711 26.2104C30.7711 27.743 30.1623 29.2129 29.0785 30.2966C27.9948 31.3803 26.525 31.9891 24.9923 31.9891ZM31.0011 21.5654C30.8241 21.5656 30.6488 21.5308 30.4852 21.4632C30.3217 21.3955 30.1731 21.2962 30.0479 21.1711C29.9227 21.0459 29.8235 20.8973 29.7558 20.7338C29.6882 20.5702 29.6534 20.3949 29.6536 20.2179C29.6536 20.041 29.6884 19.8659 29.7561 19.7025C29.8238 19.5391 29.923 19.3906 30.0481 19.2655C30.1732 19.1404 30.3216 19.0412 30.485 18.9735C30.6485 18.9059 30.8236 18.871 31.0005 18.871C31.1773 18.871 31.3525 18.9059 31.5159 18.9735C31.6793 19.0412 31.8278 19.1404 31.9529 19.2655C32.0779 19.3906 32.1771 19.5391 32.2448 19.7025C32.3125 19.8659 32.3473 20.041 32.3473 20.2179C32.3473 20.9629 31.7448 21.5654 31.0011 21.5654Z" fill="#CDCDCD"/>
<path d="M24.9925 29.9645C27.0657 29.9645 28.7463 28.2839 28.7463 26.2108C28.7463 24.1376 27.0657 22.457 24.9925 22.457C22.9194 22.457 21.2388 24.1376 21.2388 26.2108C21.2388 28.2839 22.9194 29.9645 24.9925 29.9645Z" fill="#CDCDCD"/>
</svg>
