<svg width="14" height="20" viewBox="0 0 14 20" fill="none" xmlns="http://www.w3.org/2000/svg">
<path d="M7.00016 19.1536C5.84236 18.0292 4.76917 16.7966 3.79183 15.4686C2.32516 13.4742 0.583497 10.5041 0.583497 7.67377C0.582861 6.22831 0.958879 4.81512 1.66397 3.61306C2.36905 2.41099 3.37151 1.47408 4.54448 0.920901C5.71744 0.367717 7.00818 0.223127 8.25335 0.505428C9.49852 0.78773 10.6421 1.48423 11.5395 2.50679C12.1369 3.18396 12.6105 3.9893 12.9327 4.87621C13.255 5.76312 13.4195 6.71398 13.4168 7.67377C13.4168 10.5041 11.6752 13.4742 10.2085 15.4686C9.23115 16.7966 8.15797 18.0292 7.00016 19.1536ZM7.00016 4.5429C6.27082 4.5429 5.57134 4.87276 5.05562 5.45991C4.53989 6.04706 4.25016 6.84341 4.25016 7.67377C4.25016 8.50413 4.53989 9.30048 5.05562 9.88763C5.57134 10.4748 6.27082 10.8046 7.00016 10.8046C7.72951 10.8046 8.42898 10.4748 8.94471 9.88763C9.46043 9.30048 9.75016 8.50413 9.75016 7.67377C9.75016 6.84341 9.46043 6.04706 8.94471 5.45991C8.42898 4.87276 7.72951 4.5429 7.00016 4.5429Z" fill="white"/>
</svg>
