<svg width="20" height="16" viewBox="0 0 20 16" fill="none" xmlns="http://www.w3.org/2000/svg">
<path d="M0.833416 4.89075V12.3542C0.833366 13.1152 1.12451 13.8473 1.64712 14.4005C2.16972 14.9536 2.88418 15.2857 3.64392 15.3288L3.81258 15.3334H16.1876C16.9485 15.3335 17.6807 15.0423 18.2338 14.5197C18.7869 13.9971 19.1191 13.2827 19.1622 12.5229L19.1667 12.3542V4.89075L10.3191 9.52541C10.2207 9.57697 10.1112 9.6039 10.0001 9.6039C9.88897 9.6039 9.77951 9.57697 9.68108 9.52541L0.833416 4.89075ZM16.1876 0.666748H3.81258C3.07413 0.666659 2.36197 0.940827 1.81421 1.43608C1.26646 1.93133 0.922155 2.61236 0.848083 3.34708L10.0001 8.14125L19.1521 3.34708C19.081 2.64153 18.7606 1.98447 18.2485 1.49401C17.7363 1.00354 17.066 0.711836 16.3581 0.671332L16.1876 0.666748H3.81258H16.1876Z" fill="white"/>
</svg>
