<svg width="51" height="50" viewBox="0 0 51 50" fill="none" xmlns="http://www.w3.org/2000/svg">
<circle r="25" transform="matrix(-1 0 0 1 25.5 25)" fill="#294B97" fill-opacity="0.12"/>
<path d="M22.0463 16.2559C21.7751 16.5272 21.6227 16.8951 21.6227 17.2787C21.6227 17.6624 21.7751 18.0303 22.0463 18.3016L29.2078 25.463L22.0463 32.6245C21.7828 32.8974 21.637 33.2628 21.6403 33.6422C21.6436 34.0215 21.7957 34.3844 22.0639 34.6526C22.3322 34.9208 22.6951 35.073 23.0744 35.0763C23.4537 35.0796 23.8192 34.9338 24.092 34.6702L32.2764 26.4859C32.5476 26.2146 32.7 25.8467 32.7 25.463C32.7 25.0794 32.5476 24.7115 32.2764 24.4402L24.092 16.2559C23.8207 15.9846 23.4528 15.8323 23.0692 15.8323C22.6856 15.8323 22.3176 15.9846 22.0463 16.2559Z" fill="#294B97"/>
</svg>
