<svg width="18" height="18" viewBox="0 0 18 18" fill="none" xmlns="http://www.w3.org/2000/svg">
<path d="M0.992744 2.9457L3.29569 0.659766C3.45814 0.497652 3.65123 0.369026 3.86386 0.281276C4.0765 0.193527 4.30449 0.148383 4.53474 0.148438C5.00397 0.148438 5.4451 0.331055 5.77595 0.659766L8.25404 3.12187C8.41721 3.28328 8.54667 3.47512 8.63499 3.68639C8.72331 3.89765 8.76875 4.12417 8.76869 4.35293C8.76869 4.81914 8.58489 5.25742 8.25404 5.58613L6.44196 7.38652C6.86613 8.31542 7.45586 9.16046 8.18269 9.88086C8.90769 10.6048 9.75814 11.1928 10.6932 11.6168L12.5053 9.81641C12.6678 9.65429 12.8608 9.52567 13.0735 9.43792C13.2861 9.35017 13.5141 9.30502 13.7443 9.30508C14.2136 9.30508 14.6547 9.4877 14.9856 9.81641L17.4658 12.2764C17.6292 12.4381 17.7588 12.6303 17.8471 12.8419C17.9354 13.0536 17.9807 13.2805 17.9805 13.5096C17.9805 13.9758 17.7967 14.4141 17.4658 14.7428L15.1672 17.0266C14.6396 17.5529 13.9109 17.8516 13.1627 17.8516C13.0048 17.8516 12.8534 17.8387 12.7042 17.8129C9.78934 17.3359 6.89823 15.7955 4.56501 13.4795C2.23396 11.1656 0.685686 8.29531 0.199148 5.39062C0.0521058 4.50332 0.348353 3.59023 0.992744 2.9457Z" fill="white"/>
</svg>
