<svg width="49" height="49" viewBox="0 0 49 49" fill="none" xmlns="http://www.w3.org/2000/svg">
<circle cx="24.4318" cy="24.568" r="24.4318" fill="#294B97" fill-opacity="0.12"/>
<path d="M27.8068 16.0224C28.0718 16.2875 28.2207 16.6471 28.2207 17.022C28.2207 17.3969 28.0718 17.7564 27.8068 18.0216L20.8081 25.0203L27.8068 32.019C28.0643 32.2856 28.2068 32.6428 28.2036 33.0135C28.2004 33.3842 28.0517 33.7388 27.7895 34.001C27.5274 34.2631 27.1728 34.4118 26.8021 34.415C26.4313 34.4183 26.0742 34.2758 25.8075 34.0182L17.8092 26.0199C17.5442 25.7548 17.3953 25.3952 17.3953 25.0203C17.3953 24.6454 17.5442 24.2858 17.8092 24.0207L25.8075 16.0224C26.0727 15.7573 26.4322 15.6084 26.8072 15.6084C27.1821 15.6084 27.5416 15.7573 27.8068 16.0224Z" fill="#294B97"/>
</svg>
