<svg width="33" height="23" viewBox="0 0 33 23" fill="none" xmlns="http://www.w3.org/2000/svg">
<path d="M10.3752 12.5417L4.25016 12.5417V18.6667L10.3752 18.6667V12.5417ZM28.7502 12.5417L22.6252 12.5417L22.6252 18.6667L28.7502 18.6667L28.7502 12.5417ZM5.93454 0.291666C6.95537 0.291666 7.73801 0.725178 8.28245 1.59221C8.8269 2.46059 8.86093 3.35417 8.38454 4.27291L6.29183 8.45833L10.3752 8.45833C11.4981 8.45833 12.459 8.8585 13.258 9.65883C14.0583 10.4578 14.4585 11.4187 14.4585 12.5417V18.6667C14.4585 19.7896 14.0583 20.7505 13.258 21.5495C12.459 22.3498 11.4981 22.75 10.3752 22.75L4.25016 22.75C3.12724 22.75 2.16562 22.3498 1.36529 21.5495C0.566315 20.7505 0.166828 19.7896 0.166828 18.6667L0.166828 9.42813C0.166828 9.12187 0.192688 8.80678 0.244411 8.48283C0.294773 8.16025 0.405025 7.86285 0.575165 7.59062L3.48454 1.82292C3.72273 1.34653 4.06301 0.972223 4.50537 0.700001C4.94773 0.427778 5.42412 0.291666 5.93454 0.291666ZM24.3095 0.291666C25.3304 0.291666 26.113 0.725178 26.6575 1.59221C27.2019 2.46059 27.2359 3.35417 26.7595 4.27291L24.6668 8.45833L28.7502 8.45833C29.8731 8.45833 30.834 8.8585 31.633 9.65883C32.4333 10.4578 32.8335 11.4187 32.8335 12.5417L32.8335 18.6667C32.8335 19.7896 32.4333 20.7505 31.633 21.5495C30.834 22.3498 29.8731 22.75 28.7502 22.75H22.6252C21.5022 22.75 20.5406 22.3498 19.7403 21.5495C18.9413 20.7505 18.5418 19.7896 18.5418 18.6667L18.5418 9.42813C18.5418 9.12187 18.567 8.80678 18.6174 8.48283C18.6691 8.16025 18.78 7.86285 18.9502 7.59062L21.8595 1.82292C22.0977 1.34653 22.438 0.972223 22.8804 0.700001C23.3227 0.427778 23.7991 0.291666 24.3095 0.291666ZM28.7502 12.5417L28.7502 18.6667L22.6252 18.6667L22.6252 12.5417L28.7502 12.5417ZM10.3752 12.5417V18.6667L4.25016 18.6667V12.5417L10.3752 12.5417Z" fill="#468A98"/>
</svg>
