<svg width="21" height="20" viewBox="0 0 21 20" fill="none" xmlns="http://www.w3.org/2000/svg">
<path d="M14.3579 8.46154C14.3579 6.97917 13.8207 5.71114 12.7462 4.65745C11.6717 3.60377 10.3786 3.07692 8.86696 3.07692C7.35531 3.07692 6.06223 3.60377 4.98773 4.65745C3.91323 5.71114 3.37598 6.97917 3.37598 8.46154C3.37598 9.94391 3.91323 11.2119 4.98773 12.2656C6.06223 13.3193 7.35531 13.8462 8.86696 13.8462C10.3786 13.8462 11.6717 13.3193 12.7462 12.2656C13.8207 11.2119 14.3579 9.94391 14.3579 8.46154ZM20.6333 18.4615C20.6333 18.8782 20.4781 19.2388 20.1676 19.5433C19.8571 19.8478 19.4894 20 19.0645 20C18.6233 20 18.2556 19.8478 17.9614 19.5433L13.7574 15.4327C12.2947 16.4263 10.6646 16.9231 8.86696 16.9231C7.69849 16.9231 6.5811 16.7007 5.51477 16.256C4.44844 15.8113 3.52919 15.2103 2.75702 14.4531C1.98485 13.6959 1.37202 12.7945 0.918525 11.7488C0.465029 10.7031 0.238281 9.60737 0.238281 8.46154C0.238281 7.31571 0.465029 6.21995 0.918525 5.17428C1.37202 4.12861 1.98485 3.22716 2.75702 2.46995C3.52919 1.71274 4.44844 1.11178 5.51477 0.667067C6.5811 0.222356 7.69849 0 8.86696 0C10.0354 0 11.1528 0.222356 12.2192 0.667067C13.2855 1.11178 14.2047 1.71274 14.9769 2.46995C15.7491 3.22716 16.3619 4.12861 16.8154 5.17428C17.2689 6.21995 17.4956 7.31571 17.4956 8.46154C17.4956 10.2244 16.989 11.8229 15.9758 13.2572L20.1798 17.3798C20.4822 17.6763 20.6333 18.0369 20.6333 18.4615Z" fill="#A7A7A7"/>
</svg>
