<svg width="15" height="16" viewBox="0 0 15 16" fill="none" xmlns="http://www.w3.org/2000/svg">
<path d="M14.7949 13.3865L11.874 10.5344C11.7422 10.4057 11.5635 10.3342 11.376 10.3342H10.8984C11.707 9.32435 12.1875 8.05423 12.1875 6.67254C12.1875 3.38567 9.45996 0.722412 6.09375 0.722412C2.72754 0.722412 0 3.38567 0 6.67254C0 9.95941 2.72754 12.6227 6.09375 12.6227C7.50879 12.6227 8.80957 12.1535 9.84375 11.364V11.8303C9.84375 12.0133 9.91699 12.1878 10.0488 12.3166L12.9697 15.1686C13.2451 15.4375 13.6904 15.4375 13.9629 15.1686L14.792 14.3591C15.0674 14.0902 15.0674 13.6554 14.7949 13.3865ZM6.09375 10.3342C4.02246 10.3342 2.34375 8.69787 2.34375 6.67254C2.34375 4.65007 4.01953 3.01092 6.09375 3.01092C8.16504 3.01092 9.84375 4.64721 9.84375 6.67254C9.84375 8.69501 8.16797 10.3342 6.09375 10.3342Z" fill="#ABABAB"/>
</svg>
