<svg width="31" height="21" viewBox="0 0 31 21" fill="none" xmlns="http://www.w3.org/2000/svg">
<path d="M30.2499 18.375V2.625C30.2499 1.1725 29.0774 0 27.6249 0H3.10742C1.65492 0 0.482422 1.1725 0.482422 2.625V18.375C0.482422 19.8275 1.65492 21 3.10742 21H27.6249C29.0774 21 30.2499 19.8275 30.2499 18.375ZM27.9574 2.4325C28.5349 3.01 28.2199 3.605 27.9049 3.9025L20.7999 10.4125L27.6249 17.5175C27.8349 17.7625 27.9749 18.1475 27.7299 18.41C27.5024 18.69 26.9774 18.6725 26.7499 18.4975L19.1024 11.97L15.3574 15.3825L11.6299 11.97L3.98242 18.4975C3.75492 18.6725 3.22992 18.69 3.00242 18.41C2.75742 18.1475 2.89742 17.7625 3.10742 17.5175L9.93242 10.4125L2.82742 3.9025C2.51242 3.605 2.19742 3.01 2.77492 2.4325C3.35242 1.855 3.94742 2.135 4.43742 2.555L15.3574 11.375L26.2949 2.555C26.7849 2.135 27.3799 1.855 27.9574 2.4325Z" fill="#468A98"/>
</svg>
