<svg width="20" height="16" viewBox="0 0 20 16" fill="none" xmlns="http://www.w3.org/2000/svg">
<path d="M19.7024 2.40842C19.0066 2.70133 18.2591 2.89925 17.4733 2.98871C18.2841 2.52779 18.8907 1.80237 19.1799 0.947793C18.4181 1.37766 17.5844 1.68024 16.7149 1.84238C16.1302 1.24931 15.3558 0.856217 14.5119 0.724126C13.6679 0.592035 12.8017 0.728336 12.0476 1.11187C11.2936 1.4954 10.6939 2.1047 10.3417 2.84518C9.98954 3.58566 9.90454 4.41589 10.0999 5.20696C8.55633 5.13333 7.04629 4.75219 5.66778 4.08826C4.28928 3.42433 3.07313 2.49246 2.09826 1.35313C1.76493 1.89938 1.57326 2.53271 1.57326 3.20721C1.57289 3.81441 1.73029 4.41232 2.03149 4.94787C2.3327 5.48343 2.7684 5.94007 3.29993 6.27729C2.68349 6.25866 2.08066 6.10042 1.5416 5.81575V5.86325C1.54153 6.71488 1.85162 7.5403 2.41925 8.19946C2.98687 8.85861 3.77707 9.3109 4.65576 9.47958C4.08391 9.62661 3.48438 9.64827 2.90243 9.54292C3.15034 10.2757 3.63326 10.9165 4.28357 11.3756C4.93388 11.8347 5.71903 12.0891 6.5291 12.1032C5.15396 13.1287 3.45567 13.685 1.70743 13.6825C1.39775 13.6826 1.08833 13.6654 0.780762 13.6311C2.55533 14.715 4.62105 15.2903 6.73076 15.288C13.8724 15.288 17.7766 9.66879 17.7766 4.79529C17.7766 4.63696 17.7724 4.47704 17.7649 4.31871C18.5243 3.79698 19.1799 3.15092 19.7008 2.41079L19.7024 2.40842Z" fill="white"/>
</svg>
