<svg width="50" height="50" viewBox="0 0 50 50" fill="none" xmlns="http://www.w3.org/2000/svg">
<circle cx="25" cy="25" r="25" fill="#F1F1F1"/>
<path d="M26.0001 10.6C18.0471 10.6 11.6001 17.047 11.6001 25C11.6001 32.953 18.0471 39.4 26.0001 39.4C33.9531 39.4 40.4001 32.953 40.4001 25C40.4001 17.047 33.9531 10.6 26.0001 10.6ZM31.8576 22.396C31.8636 22.519 31.8651 22.642 31.8651 22.762C31.8651 26.512 29.0136 30.8335 23.7966 30.8335C22.255 30.836 20.7455 30.3933 19.4496 29.5585C19.6701 29.5855 19.8966 29.596 20.1261 29.596C21.4551 29.596 22.6776 29.1445 23.6481 28.3825C23.0567 28.3709 22.4836 28.175 22.0088 27.8223C21.5339 27.4695 21.181 26.9774 20.9991 26.4145C21.4238 26.4952 21.8614 26.4783 22.2786 26.365C21.6367 26.2352 21.0594 25.8873 20.6447 25.3805C20.2299 24.8736 20.0033 24.2389 20.0031 23.584V23.5495C20.3856 23.761 20.8236 23.89 21.2886 23.905C20.6868 23.5044 20.2608 22.889 20.0977 22.1847C19.9346 21.4804 20.0467 20.7404 20.4111 20.116C21.1235 20.992 22.012 21.7086 23.019 22.2194C24.0259 22.7303 25.1289 23.024 26.2566 23.0815C26.1132 22.4729 26.1749 21.8341 26.4321 21.2642C26.6893 20.6944 27.1275 20.2255 27.6787 19.9304C28.2299 19.6353 28.8631 19.5306 29.4799 19.6325C30.0968 19.7344 30.6626 20.0373 31.0896 20.494C31.7244 20.3684 32.3331 20.1356 32.8896 19.8055C32.678 20.4627 32.2351 21.0207 31.6431 21.376C32.2054 21.3083 32.7544 21.1571 33.2721 20.9275C32.8918 21.4973 32.4128 21.9946 31.8576 22.396Z" fill="#7D7D7D"/>
</svg>
