<svg width="51" height="52" viewBox="0 0 51 52" fill="none" xmlns="http://www.w3.org/2000/svg">
<circle cx="25.5" cy="25.7368" r="24.5" stroke="#8C8C8C" stroke-width="2"/>
<path d="M36.643 19.1739C35.808 19.5439 34.911 19.7939 33.968 19.9069C34.941 19.3247 35.669 18.4084 36.016 17.3289C35.1019 17.8719 34.1014 18.2541 33.058 18.4589C32.3564 17.7098 31.4271 17.2132 30.4143 17.0464C29.4016 16.8795 28.3621 17.0517 27.4572 17.5361C26.5524 18.0206 25.8328 18.7903 25.4102 19.7256C24.9875 20.6609 24.8855 21.7096 25.12 22.7089C23.2677 22.6159 21.4556 22.1344 19.8014 21.2958C18.1472 20.4572 16.6879 19.2801 15.518 17.8409C15.118 18.5309 14.888 19.3309 14.888 20.1829C14.8876 20.9499 15.0764 21.7051 15.4379 22.3816C15.7993 23.0581 16.3222 23.6349 16.96 24.0609C16.2203 24.0374 15.4969 23.8375 14.85 23.4779V23.5379C14.8499 24.6136 15.222 25.6563 15.9032 26.4889C16.5843 27.3215 17.5326 27.8928 18.587 28.1059C17.9008 28.2916 17.1813 28.319 16.483 28.1859C16.7805 29.1115 17.36 29.9209 18.1404 30.5008C18.9208 31.0807 19.8629 31.4021 20.835 31.4199C19.1848 32.7153 17.1469 33.418 15.049 33.4149C14.6774 33.415 14.3061 33.3933 13.937 33.3499C16.0665 34.7191 18.5454 35.4457 21.077 35.4429C29.647 35.4429 34.332 28.3449 34.332 22.1889C34.332 21.9889 34.327 21.7869 34.318 21.5869C35.2293 20.9279 36.0159 20.1118 36.641 19.1769L36.643 19.1739Z" fill="#CDCDCD"/>
</svg>
