<svg width="13" height="15" viewBox="0 0 13 15" fill="none" xmlns="http://www.w3.org/2000/svg">
<path d="M11.4554 6.79168C11.6289 6.79171 11.7964 6.8554 11.926 6.97069C12.0557 7.08598 12.1385 7.24484 12.1588 7.41714L12.1638 7.50002V11.75C12.1638 12.4769 11.8844 13.1761 11.3834 13.7028C10.8824 14.2295 10.1981 14.5435 9.47208 14.5798L9.33042 14.5834H3.66659C2.93966 14.5834 2.24055 14.304 1.71384 13.803C1.18714 13.302 0.87314 12.6177 0.836794 11.8917L0.833252 11.75V7.50002C0.833452 7.31948 0.902583 7.14583 1.02652 7.01455C1.15046 6.88327 1.31984 6.80427 1.50007 6.79369C1.6803 6.78311 1.85777 6.84174 1.99622 6.95762C2.13466 7.0735 2.22364 7.23787 2.24496 7.41714L2.24992 7.50002V11.75C2.24998 12.1073 2.38505 12.4514 2.62805 12.7133C2.87106 12.9752 3.20406 13.1356 3.56034 13.1624L3.66659 13.1667H9.33042C9.68771 13.1666 10.0318 13.0316 10.2937 12.7885C10.5556 12.5455 10.716 12.2125 10.7428 11.8563L10.7471 11.75V7.50002C10.7471 7.31215 10.8217 7.13199 10.9546 6.99915C11.0874 6.86631 11.2676 6.79168 11.4554 6.79168ZM2.45463 4.16377L5.99417 0.624224C6.11605 0.502161 6.27828 0.428767 6.45043 0.417813C6.62257 0.406858 6.7928 0.459096 6.92917 0.564724L6.99575 0.623516L10.5395 4.16306C10.6668 4.29041 10.7408 4.46145 10.7465 4.64141C10.7522 4.82137 10.6891 4.99674 10.5702 5.13187C10.4512 5.26701 10.2852 5.35176 10.106 5.36889C9.92672 5.38603 9.74769 5.33427 9.60525 5.22414L9.53867 5.16535L7.20542 2.83564V9.80564C7.2054 9.97914 7.1417 10.1466 7.02641 10.2762C6.91112 10.4059 6.75226 10.4887 6.57996 10.509L6.49709 10.514C6.32359 10.514 6.15614 10.4503 6.02649 10.335C5.89684 10.2197 5.81401 10.0608 5.79371 9.88852L5.78875 9.80564V2.8321L3.45621 5.16535C3.33424 5.28731 3.17196 5.36057 2.99982 5.3714C2.82767 5.38222 2.6575 5.32986 2.52121 5.22414L2.45463 5.16535C2.33267 5.04338 2.25941 4.8811 2.24858 4.70896C2.23776 4.53681 2.29012 4.36664 2.39584 4.23035L2.45463 4.16306L5.99417 0.624224L2.45534 4.16306L2.45463 4.16377Z" fill="#ABABAB"/>
</svg>
