<svg width="50" height="50" viewBox="0 0 50 50" fill="none" xmlns="http://www.w3.org/2000/svg">
<circle cx="25" cy="25" r="25" fill="#F1F1F1"/>
<path d="M24.9999 12.8125C22.8833 12.8123 20.8031 13.3634 18.9642 14.4115C17.1253 15.4596 15.591 16.9685 14.5125 18.7898C13.4339 20.611 12.8483 22.6817 12.8132 24.7981C12.7781 26.9144 13.2948 29.0034 14.3124 30.8594L13.3164 34.375C13.2234 34.6954 13.2182 35.0348 13.3012 35.3578C13.3843 35.6809 13.5525 35.9758 13.7883 36.2116C14.0242 36.4475 14.319 36.6157 14.6421 36.6987C14.9652 36.7817 15.3046 36.7765 15.6249 36.6836L19.1406 35.6875C20.7698 36.5805 22.5816 37.0891 24.4376 37.1746C26.2935 37.2601 28.1444 36.9201 29.8489 36.1806C31.5533 35.4412 33.0661 34.3219 34.2716 32.9082C35.4772 31.4945 36.3436 29.824 36.8046 28.0242C37.2656 26.2244 37.309 24.343 36.9316 22.5238C36.5541 20.7047 35.7657 18.9959 34.6267 17.5281C33.4876 16.0603 32.0281 14.8724 30.3596 14.0551C28.6911 13.2378 26.8579 12.8128 24.9999 12.8125V12.8125ZM27.8242 32.5H27.8124C25.0763 32.4969 22.4533 31.4078 20.5197 29.472C18.5861 27.5361 17.4999 24.9119 17.4999 22.1758C17.5031 21.0589 17.9489 19.9889 18.7397 19.2002C19.5306 18.4116 20.6018 17.9687 21.7187 17.9688C22.0257 17.9694 22.3271 18.051 22.5925 18.2053C22.8579 18.3596 23.0779 18.5812 23.2304 18.8477L24.6015 21.25C24.7671 21.5377 24.8523 21.8646 24.8482 22.1966C24.844 22.5285 24.7508 22.8532 24.5781 23.1367L23.746 24.5312C24.1644 25.2426 24.7573 25.8356 25.4687 26.2539L26.8632 25.4219C27.1467 25.2492 27.4715 25.1559 27.8034 25.1518C28.1353 25.1477 28.4622 25.2329 28.7499 25.3984L31.1523 26.7695C31.4188 26.922 31.6403 27.142 31.7946 27.4074C31.9489 27.6728 32.0305 27.9742 32.0312 28.2812C32.0312 29.3981 31.5883 30.4694 30.7997 31.2602C30.0111 32.0511 28.941 32.4969 27.8242 32.5V32.5Z" fill="#7D7D7D"/>
<path d="M25.9961 28.1289C25.8657 28.2052 25.719 28.2492 25.5682 28.2573C25.4174 28.2655 25.2668 28.2375 25.1289 28.1758C23.6553 27.5227 22.4774 26.3447 21.8242 24.8711C21.7625 24.7332 21.7345 24.5827 21.7427 24.4318C21.7508 24.281 21.7949 24.1343 21.8711 24.0039L22.9727 22.1758L21.6484 19.8438C21.0402 19.859 20.4619 20.1115 20.0372 20.5472C19.6125 20.9829 19.3748 21.5673 19.375 22.1758C19.3735 23.2848 19.5906 24.3832 20.0139 25.4083C20.4372 26.4333 21.0585 27.3648 21.8421 28.1496C22.6258 28.9343 23.5565 29.5569 24.5809 29.9816C25.6054 30.4064 26.7035 30.625 27.8125 30.625H27.8242C28.4327 30.6252 29.0172 30.3876 29.4528 29.9628C29.8885 29.5381 30.141 28.9598 30.1563 28.3516L27.8242 27.0273L25.9961 28.1289Z" fill="#7D7D7D"/>
</svg>
