<svg width="18" height="18" viewBox="0 0 18 18" fill="none" xmlns="http://www.w3.org/2000/svg">
<path d="M9.00005 0.0625C10.5523 0.0623822 12.0777 0.466516 13.4263 1.23511C14.7748 2.00371 15.9 3.11026 16.6909 4.44583C17.4818 5.7814 17.9113 7.29993 17.937 8.85192C17.9627 10.4039 17.5838 11.9358 16.8376 13.2969L17.568 15.875C17.6362 16.1099 17.64 16.3588 17.5791 16.5957C17.5182 16.8327 17.3949 17.0489 17.2219 17.2218C17.0489 17.3948 16.8327 17.5182 16.5958 17.5791C16.3589 17.6399 16.11 17.6361 15.8751 17.568L13.2969 16.8375C12.1022 17.4923 10.7735 17.8654 9.41245 17.928C8.05143 17.9907 6.69409 17.7414 5.44419 17.1991C4.19428 16.6569 3.08489 15.836 2.20082 14.7994C1.31675 13.7627 0.681389 12.5376 0.343311 11.2177C0.00523376 9.89787 -0.0266132 8.51819 0.250202 7.18414C0.527018 5.85009 1.10517 4.59699 1.94047 3.52062C2.77576 2.44424 3.84609 1.57308 5.06965 0.973725C6.2932 0.374371 7.63759 0.0626887 9.00005 0.0625ZM6.92896 14.5H6.93755C8.94404 14.4977 10.8676 13.6991 12.2856 12.2794C13.7036 10.8598 14.5001 8.9354 14.5001 6.92891C14.4978 6.10988 14.1708 5.32518 13.5909 4.74685C13.0109 4.16851 12.2253 3.84375 11.4063 3.84375C11.1812 3.84424 10.9601 3.90408 10.7655 4.01724C10.5709 4.1304 10.4095 4.29287 10.2977 4.48828L9.29224 6.25C9.17082 6.46099 9.10834 6.70074 9.11137 6.94415C9.11439 7.18756 9.1828 7.42569 9.30943 7.63359L9.91959 8.65625C9.61279 9.17794 9.17799 9.61274 8.6563 9.91953L7.63365 9.30938C7.42574 9.18275 7.18762 9.11434 6.9442 9.11131C6.70079 9.10829 6.46104 9.17076 6.25005 9.29219L4.48833 10.2977C4.29293 10.4095 4.13045 10.5708 4.01729 10.7655C3.90414 10.9601 3.84429 11.1811 3.8438 11.4062C3.8438 12.2253 4.16857 13.0109 4.7469 13.5908C5.32523 14.1708 6.10994 14.4977 6.92896 14.5Z" fill="white"/>
<path d="M8.26953 11.2945C8.36514 11.3504 8.47273 11.3827 8.58333 11.3887C8.69394 11.3947 8.80437 11.3742 8.90546 11.3289C9.98611 10.8499 10.8499 9.98611 11.3289 8.90547C11.3742 8.80438 11.3947 8.69394 11.3887 8.58334C11.3827 8.47273 11.3504 8.36515 11.2945 8.26953L10.4867 6.92891L11.4578 5.21875C11.9039 5.22996 12.3279 5.41508 12.6394 5.73458C12.9509 6.05409 13.1251 6.48269 13.125 6.92891C13.1261 7.74218 12.9669 8.5477 12.6565 9.2994C12.346 10.0511 11.8904 10.7342 11.3158 11.3097C10.7411 11.8852 10.0586 12.3417 9.30733 12.6532C8.55607 12.9647 7.75077 13.125 6.93749 13.125H6.9289C6.48269 13.1251 6.05409 12.9509 5.73458 12.6394C5.41507 12.3279 5.22996 11.9039 5.21874 11.4578L6.9289 10.4867L8.26953 11.2945Z" fill="white"/>
</svg>
