<svg width="51" height="52" viewBox="0 0 51 52" fill="none" xmlns="http://www.w3.org/2000/svg">
<circle cx="25.5" cy="25.7368" r="24.5" stroke="#8C8C8C" stroke-width="2"/>
<g clip-path="url(#clip0_27739_417)">
<path d="M40.3748 19.3704C40.2049 18.7645 39.874 18.2158 39.4173 17.7829C38.9477 17.3367 38.372 17.0175 37.7448 16.8554C35.3973 16.2367 25.9923 16.2367 25.9923 16.2367C22.0715 16.1921 18.1516 16.3883 14.2548 16.8242C13.6275 16.9982 13.053 17.3245 12.5823 17.7742C12.1198 18.2192 11.7848 18.7679 11.6098 19.3692C11.1894 21.6338 10.9852 23.9333 10.9998 26.2367C10.9848 28.5379 11.1885 30.8367 11.6098 33.1042C11.781 33.7029 12.1148 34.2492 12.5785 34.6904C13.0423 35.1317 13.6198 35.4504 14.2548 35.6192C16.6335 36.2367 25.9923 36.2367 25.9923 36.2367C29.9181 36.2813 33.843 36.0851 37.7448 35.6492C38.372 35.4871 38.9477 35.1679 39.4173 34.7217C39.8739 34.2888 40.2044 33.7401 40.3735 33.1342C40.8049 30.8704 41.0146 28.5699 40.9998 26.2654C41.0322 23.9512 40.8228 21.6399 40.3748 19.3692V19.3704ZM23.0023 30.5167V21.9579L30.8273 26.2379L23.0023 30.5167Z" fill="#CDCDCD"/>
</g>
<defs>
<clipPath id="clip0_27739_417">
<rect width="30" height="30" fill="white" transform="translate(11 11.2368)"/>
</clipPath>
</defs>
</svg>
