<svg width="23" height="16" viewBox="0 0 23 16" fill="none" xmlns="http://www.w3.org/2000/svg">
<path d="M11.2636 9.53674e-07H11.2411C11.1714 9.53674e-07 4.19901 0.0134878 2.43989 0.491203C1.96458 0.61925 1.53124 0.86991 1.18326 1.21809C0.835284 1.56627 0.58487 1.99974 0.457092 2.47513C0.14077 4.25969 -0.0119837 6.06941 0.000733092 7.88174C-0.00743341 9.69705 0.149454 11.5093 0.469457 13.2962C0.600845 13.7724 0.852415 14.2068 1.20002 14.5578C1.54763 14.9087 1.97961 15.1644 2.45451 15.3004C4.16529 15.75 10.9455 15.75 11.2332 15.75H11.2568C11.3276 15.75 18.318 15.7365 20.0592 15.2588C21.0247 14.9969 21.7789 14.2427 22.0397 13.2771C22.3657 11.4854 22.5197 9.66784 22.4972 7.8469C22.5051 6.03379 22.3478 4.22374 22.0274 2.43916C21.8979 1.9643 21.6465 1.53156 21.2981 1.18393C20.9496 0.83629 20.5163 0.585852 20.0412 0.457483C18.3326 0.00449657 11.5513 9.53674e-07 11.2636 9.53674e-07ZM9.01551 11.2482L9.00989 4.50401L14.8684 7.87612L9.01551 11.2482Z" fill="white"/>
</svg>
